<?xml version="1.0" standalone="no"?>
<!DOCTYPE svg PUBLIC "-//W3C//DTD SVG 20010904//EN"
 "http://www.w3.org/TR/2001/REC-SVG-20010904/DTD/svg10.dtd">
<svg version="1.0" xmlns="http://www.w3.org/2000/svg"
 width="64.000000pt" height="64.000000pt" viewBox="0 0 64.000000 64.000000"
 preserveAspectRatio="xMidYMid meet">
<metadata>
Created by potrace 1.16, written by Peter Selinger 2001-2019
</metadata>
<g transform="translate(0.000000,64.000000) scale(0.100000,-0.100000)"
fill="current" stroke="current">
<path d="M95 586 c-16 -8 -43 -28 -60 -45 -24 -26 -30 -41 -33 -95 -3 -44 0
-72 11 -92 9 -16 81 -94 161 -174 l146 -145 52 52 c40 40 57 50 68 43 8 -5 39
-10 69 -10 49 0 57 3 93 40 40 39 40 40 34 102 -7 76 -7 77 0 158 5 57 2 69
-18 99 -64 94 -176 109 -259 34 l-40 -36 -32 31 c-54 52 -128 67 -192 38z
m171 -87 l54 -52 54 52 c49 46 59 51 100 51 75 0 138 -75 120 -144 -7 -29 -11
-30 -50 -15 -101 38 -207 -73 -171 -180 14 -39 14 -40 -20 -73 l-33 -32 -125
124 c-143 143 -163 174 -146 231 16 55 62 89 117 89 41 0 51 -5 100 -51z m296
-178 c42 -38 44 -89 5 -128 -39 -39 -90 -37 -128 5 -43 48 -33 108 22 138 37
21 66 16 101 -15z"/>
</g>
</svg>
