<?xml version="1.0" standalone="no"?>
<!DOCTYPE svg PUBLIC "-//W3C//DTD SVG 20010904//EN"
 "http://www.w3.org/TR/2001/REC-SVG-20010904/DTD/svg10.dtd">
<svg version="1.0" xmlns="http://www.w3.org/2000/svg"
 width="96.000000pt" height="96.000000pt" viewBox="0 0 96.000000 96.000000"
 preserveAspectRatio="xMidYMid meet">
<metadata>
Created by potrace 1.16, written by Peter Selinger 2001-2019
</metadata>
<g transform="translate(0.000000,96.000000) scale(0.100000,-0.100000)"
fill="current" stroke="current">
<path d="M328 941 c-74 -24 -144 -69 -200 -129 -91 -97 -128 -194 -128 -332 0
-138 37 -235 128 -332 95 -101 206 -148 352 -148 146 0 257 47 352 148 90 96
128 194 128 327 l0 82 -42 -7 c-23 -5 -44 -13 -46 -19 -2 -7 -33 -11 -76 -11
l-73 0 -6 76 c-4 42 -20 116 -37 165 -28 85 -29 92 -15 120 9 16 13 34 10 39
-24 39 -247 53 -347 21z m204 -98 c24 -26 48 -65 48 -77 0 -3 -45 -6 -100 -6
-55 0 -100 3 -100 6 0 34 67 104 100 104 16 0 37 -11 52 -27z m-286 -209 c-3
-26 -6 -62 -6 -80 l0 -34 -76 0 -76 0 7 38 c3 20 15 56 25 80 l19 42 57 0 57
0 -7 -46z m369 29 c3 -10 9 -46 12 -80 l6 -63 -153 0 -153 0 6 63 c10 103 1
97 147 97 112 0 129 -2 135 -17z m-375 -257 c0 -18 3 -54 6 -80 l7 -46 -57 0
-57 0 -19 43 c-10 23 -22 59 -25 80 l-7 37 76 0 76 0 0 -34z m387 -29 c-10
-103 -1 -97 -147 -97 -146 0 -137 -6 -147 97 l-6 63 153 0 153 0 -6 -63z m238
26 c-3 -21 -15 -57 -25 -80 l-19 -43 -57 0 -57 0 7 46 c3 26 6 62 6 80 l0 34
76 0 76 0 -7 -37z m-285 -209 c0 -34 -67 -104 -100 -104 -33 0 -100 70 -100
104 0 3 45 6 100 6 55 0 100 -3 100 -6z"/>
<path d="M753 925 c-34 -34 -35 -37 -31 -100 3 -53 13 -82 53 -162 30 -58 56
-98 65 -98 9 0 35 40 65 98 40 80 50 109 53 162 4 63 3 66 -31 100 -31 31 -41
35 -87 35 -46 0 -56 -4 -87 -35z"/>
</g>
</svg>
